<?xml version="1.0" encoding="UTF-8"?>
<svg width="32px" height="32px" viewBox="0 0 32 32" version="1.1" xmlns="http://www.w3.org/2000/svg" xmlns:xlink="http://www.w3.org/1999/xlink">
    <!-- Generator: Sketch 55.1 (78136) - https://sketchapp.com -->
    <title>Combined Shape</title>
    <desc>Created with Sketch.</desc>
    <g id="Page-3" stroke="none" stroke-width="1" fill="none" fill-rule="evenodd">
        <g id="Desktop-HD-Copy-18" transform="translate(-215.000000, -423.000000)" fill="#FFFFFF">
            <g id="left" transform="translate(133.000000, 104.000000)">
                <g id="main" transform="translate(8.000000, 258.000000)">
                    <g id="playlist" transform="translate(19.000000, 18.000000)">
                        <g id="Group-4" transform="translate(55.000000, 39.000000)">
                            <g id="play-button" transform="translate(0.000000, 4.000000)">
                                <g id="Group-8">
                                    <path d="M16,32 C7.163444,32 0,24.836556 0,16 C0,7.163444 7.163444,0 16,0 C24.836556,0 32,7.163444 32,16 C32,24.836556 24.836556,32 16,32 Z M23.1918715,17.2043769 C23.3297123,17.1301549 23.4427466,17.0171206 23.5169685,16.8792799 C23.726439,16.4902632 23.5808881,16.0050936 23.1918715,15.7956231 L12.6792799,10.1349968 C12.5627131,10.0722301 12.4323913,10.0393737 12.3,10.0393737 C11.8581722,10.0393737 11.5,10.3975459 11.5,10.8393737 L11.5,22.1606263 C11.5,22.2930176 11.5328564,22.4233394 11.5956231,22.5399061 C11.8050936,22.9289227 12.2902632,23.0744736 12.6792799,22.8650032 L23.1918715,17.2043769 Z" id="Combined-Shape"></path>
                                </g>
                            </g>
                        </g>
                    </g>
                </g>
            </g>
        </g>
    </g>
</svg>