<svg id="Layer_1" data-name="Layer 1" xmlns="http://www.w3.org/2000/svg" viewBox="0 0 1600 450"><defs><style>.cls-1{fill:#ffaf65;}.cls-2{fill:#cc8c51;}.cls-3{fill:#ff9f72;}.cls-4{fill:#c77a58;}.cls-5{fill:#fe9180;}.cls-6{fill:#bc6c5f;}.cls-7{fill:#f3878f;}.cls-8{fill:#ac6065;}.cls-9{fill:#e3819b;}.cls-10{fill:#985668;}.cls-11{fill:#ce7da5;}.cls-12{fill:#824f68;}</style></defs><title>mountains-bg</title><polygon class="cls-1" points="919.32 0 541.47 450 1316.16 450 919.32 0"/><polygon class="cls-2" points="919.32 0 843.3 450 1316.16 450 919.32 0"/><polygon class="cls-3" points="0 450 414.01 212 791.86 450 0 450"/><polygon class="cls-4" points="358.87 450 414.01 212 791.86 450 358.87 450"/><polygon class="cls-5" points="1141.69 96 1457.17 450 846.1 450 1141.69 96"/><polygon class="cls-6" points="1141.69 96 1457.17 450 1104.63 450 1141.69 96"/><polygon class="cls-7" points="633.67 245 855.14 450 385.99 450 633.67 245"/><polygon class="cls-8" points="584.86 450 633.67 245 855.14 450 584.86 450"/><polygon class="cls-9" points="1600 450 1320.68 182 1044.97 450 1600 450"/><polygon class="cls-10" points="1600 450 1320.68 182 1288.14 450 1600 450"/><polygon class="cls-11" points="1148.02 450 931.98 237 709.61 450 1148.02 450"/><polygon class="cls-12" points="906.67 450 1148.02 450 931.98 237 906.67 450"/></svg>
